# xmcd
#
# Track frame offsets:
#	150
#	12303
#	27807
#	39048
#	51136
#	64860
#	85568
#	94881
#	106904
#	118533
#	131371
#	147130
#	157886
#	169839
#	181105
#
# Disc length: 2620 seconds
#
# Revision: 1
# Processed by: cddbd v1.5.2PL0 Copyright (c) Steve Scherf et al.
# Submitted via: audiograbber 1.83.01
#
DISCID=ad0a3a0f
DTITLE=Das Luftwaffenmusikkorps - Marschfestival
DYEAR=2010
DGENRE=Märsche
TTITLE0=Radetzky-Marsch
TTITLE1=Preußens Gloria
TTITLE2=Königsgrätzer Marsch
TTITLE3=Unter dem Doppeladler
TTITLE4=Fehrbelliner Reitermarsch
TTITLE5=Alte Kameraden
TTITLE6=Gruß an Kiel
TTITLE7=Marsch aus Petersburg
TTITLE8=Marsch des York'schen Korps
TTITLE9=Fridericus-Rex-Grenadiermarsch
TTITLE10=Parademarsch Nr. 1
TTITLE11=Fliegermarsch
TTITLE12=Leichte Kavallerie
TTITLE13=Alexandermarsch
TTITLE14=Marsch der Finnländischen Reiterei
EXTD=
EXTT0=
EXTT1=
EXTT2=
EXTT3=
EXTT4=
EXTT5=
EXTT6=
EXTT7=
EXTT8=
EXTT9=
EXTT10=
EXTT11=
EXTT12=
EXTT13=
EXTT14=
PLAYORDER=
